<?xml version="1.0" encoding="UTF-8" standalone="no"?><svg xmlns="http://www.w3.org/2000/svg" xmlns:xlink="http://www.w3.org/1999/xlink" contentScriptType="application/ecmascript" contentStyleType="text/css" height="498px" preserveAspectRatio="none" style="width:415px;height:498px;" version="1.1" viewBox="0 0 415 498" width="415px" zoomAndPan="magnify"><defs><filter height="300%" id="f1ppqsqglywoie" width="300%" x="-1" y="-1"><feGaussianBlur result="blurOut" stdDeviation="2.0"/><feColorMatrix in="blurOut" result="blurOut2" type="matrix" values="0 0 0 0 0 0 0 0 0 0 0 0 0 0 0 0 0 0 .4 0"/><feOffset dx="4.0" dy="4.0" in="blurOut2" result="blurOut3"/><feBlend in="SourceGraphic" in2="blurOut3" mode="normal"/></filter></defs><g><!--MD5=[51902f9cf29cd601730683d3fabd5519]
cluster Frontends--><polygon fill="#FFFFFF" filter="url(#f1ppqsqglywoie)" points="79,6,167,6,174,28.2969,398,28.2969,398,103,79,103,79,6" style="stroke: #000000; stroke-width: 1.5;"/><line style="stroke: #000000; stroke-width: 1.5;" x1="79" x2="174" y1="28.2969" y2="28.2969"/><text fill="#000000" font-family="sans-serif" font-size="14" font-weight="bold" lengthAdjust="spacingAndGlyphs" textLength="82" x="83" y="20.9951">Frontends</text><!--MD5=[1bf9fafd4c3ffed81b5161497c92f4c1]
cluster Apis--><polygon fill="#FFFFFF" filter="url(#f1ppqsqglywoie)" points="132,137,142,127,260,127,260,219,250,229,132,229,132,137" style="stroke: #000000; stroke-width: 1.5;"/><line style="stroke: #000000; stroke-width: 1.5;" x1="250" x2="260" y1="137" y2="127"/><line style="stroke: #000000; stroke-width: 1.5;" x1="132" x2="250" y1="137" y2="137"/><line style="stroke: #000000; stroke-width: 1.5;" x1="250" x2="250" y1="137" y2="229"/><text fill="#000000" font-family="sans-serif" font-size="14" font-weight="bold" lengthAdjust="spacingAndGlyphs" textLength="35" x="174.5" y="152.9951">Apis</text><!--MD5=[1e10b604b7746d79a680f4b65ff44148]
cluster Backend applications--><polygon fill="#FFFFFF" filter="url(#f1ppqsqglywoie)" points="96,263,106,253,346,253,346,345,336,355,96,355,96,263" style="stroke: #000000; stroke-width: 1.5;"/><line style="stroke: #000000; stroke-width: 1.5;" x1="336" x2="346" y1="263" y2="253"/><line style="stroke: #000000; stroke-width: 1.5;" x1="96" x2="336" y1="263" y2="263"/><line style="stroke: #000000; stroke-width: 1.5;" x1="336" x2="336" y1="263" y2="355"/><text fill="#000000" font-family="sans-serif" font-size="14" font-weight="bold" lengthAdjust="spacingAndGlyphs" textLength="174" x="130" y="278.9951">Backend applications</text><!--MD5=[00c6b0b359edc20bf57ae3e5e841ab11]
cluster Databases--><path d="M115,389 C115,379 196,379 196,379 C196,379 277,379 277,389 L277,481 C277,491 196,491 196,491 C196,491 115,491 115,481 L115,389 " fill="#FFFFFF" filter="url(#f1ppqsqglywoie)" style="stroke: #000000; stroke-width: 1.5;"/><path d="M115,389 C115,399 196,399 196,399 C196,399 277,399 277,389 " fill="none" style="stroke: #000000; stroke-width: 1.5;"/><text fill="#000000" font-family="sans-serif" font-size="14" font-weight="bold" lengthAdjust="spacingAndGlyphs" textLength="86" x="153" y="413.9951">Databases</text><!--MD5=[50454a96b1beff30c0f98383e84387d8]
entity geo-editor--><rect fill="#FEFECE" filter="url(#f1ppqsqglywoie)" height="46.2969" style="stroke: #A80036; stroke-width: 1.5;" width="117" x="264.5" y="41"/><rect fill="#FEFECE" height="10" style="stroke: #A80036; stroke-width: 1.5;" width="15" x="361.5" y="46"/><rect fill="#FEFECE" height="2" style="stroke: #A80036; stroke-width: 1.5;" width="4" x="359.5" y="48"/><rect fill="#FEFECE" height="2" style="stroke: #A80036; stroke-width: 1.5;" width="4" x="359.5" y="52"/><text fill="#000000" font-family="sans-serif" font-size="14" lengthAdjust="spacingAndGlyphs" textLength="77" x="279.5" y="73.9951">geo-editor</text><!--MD5=[8b861a298592fcc50a6704933eb66306]
entity geo-api-docs--><rect fill="#FEFECE" filter="url(#f1ppqsqglywoie)" height="46.2969" style="stroke: #A80036; stroke-width: 1.5;" width="134" x="95" y="41"/><rect fill="#FEFECE" height="10" style="stroke: #A80036; stroke-width: 1.5;" width="15" x="209" y="46"/><rect fill="#FEFECE" height="2" style="stroke: #A80036; stroke-width: 1.5;" width="4" x="207" y="48"/><rect fill="#FEFECE" height="2" style="stroke: #A80036; stroke-width: 1.5;" width="4" x="207" y="52"/><text fill="#000000" font-family="sans-serif" font-size="14" lengthAdjust="spacingAndGlyphs" textLength="94" x="110" y="73.9951">geo-api-docs</text><!--MD5=[a5f66e175b2abf3ddd815ab7a8176f6b]
entity geo-api--><rect fill="#FEFECE" filter="url(#f1ppqsqglywoie)" height="46.2969" style="stroke: #A80036; stroke-width: 1.5;" width="95" x="148.5" y="167"/><rect fill="#FEFECE" height="10" style="stroke: #A80036; stroke-width: 1.5;" width="15" x="223.5" y="172"/><rect fill="#FEFECE" height="2" style="stroke: #A80036; stroke-width: 1.5;" width="4" x="221.5" y="174"/><rect fill="#FEFECE" height="2" style="stroke: #A80036; stroke-width: 1.5;" width="4" x="221.5" y="178"/><text fill="#000000" font-family="sans-serif" font-size="14" lengthAdjust="spacingAndGlyphs" textLength="55" x="163.5" y="199.9951">geo-api</text><!--MD5=[c0418ae9a84e2ea62ed89c567fdda1d3]
entity geoApp--><rect fill="#FEFECE" filter="url(#f1ppqsqglywoie)" height="46.2969" style="stroke: #A80036; stroke-width: 1.5;" width="133" x="129.5" y="293"/><rect fill="#FEFECE" height="10" style="stroke: #A80036; stroke-width: 1.5;" width="15" x="242.5" y="298"/><rect fill="#FEFECE" height="2" style="stroke: #A80036; stroke-width: 1.5;" width="4" x="240.5" y="300"/><rect fill="#FEFECE" height="2" style="stroke: #A80036; stroke-width: 1.5;" width="4" x="240.5" y="304"/><text fill="#000000" font-family="sans-serif" font-size="14" lengthAdjust="spacingAndGlyphs" textLength="93" x="144.5" y="325.9951">geo-api-impl</text><!--MD5=[2f77700ff471796b0e2941825987d8a3]
entity geoDb--><rect fill="#FEFECE" filter="url(#f1ppqsqglywoie)" height="46.2969" style="stroke: #A80036; stroke-width: 1.5;" width="129" x="131.5" y="429"/><rect fill="#FEFECE" height="10" style="stroke: #A80036; stroke-width: 1.5;" width="15" x="240.5" y="434"/><rect fill="#FEFECE" height="2" style="stroke: #A80036; stroke-width: 1.5;" width="4" x="238.5" y="436"/><rect fill="#FEFECE" height="2" style="stroke: #A80036; stroke-width: 1.5;" width="4" x="238.5" y="440"/><text fill="#000000" font-family="sans-serif" font-size="14" lengthAdjust="spacingAndGlyphs" textLength="89" x="146.5" y="461.9951">Postgis(geo)</text><!--MD5=[fb8b942d640fb6012637e1bb49c996ff]
entity gg--><ellipse cx="15" cy="64" fill="#FEFECE" filter="url(#f1ppqsqglywoie)" rx="8" ry="8" style="stroke: #A80036; stroke-width: 1.5;"/><text fill="#000000" font-family="sans-serif" font-size="14" lengthAdjust="spacingAndGlyphs" textLength="18" x="6" y="93.9951">gg</text><!--MD5=[aa332f5a5281028618880898fdab453a]
link geo-editor to geo-api--><path d="M300.295,87.169 C278.488,108.461 245.549,140.621 222.541,163.086 " fill="none" id="geo-editor-to-geo-api" style="stroke: #A80036; stroke-width: 2.0;"/><polygon fill="#A80036" points="218.937,166.605,228.1709,163.1793,222.5144,163.1119,222.5819,157.4554,218.937,166.605" style="stroke: #A80036; stroke-width: 2.0;"/><!--MD5=[a4e49a8541c88d15cd8bc0b4bf2778d9]
link geo-api-docs to geo-api--><path d="M168.079,87.169 C173.797,108.023 182.373,139.302 188.511,161.687 " fill="none" id="geo-api-docs-to-geo-api" style="stroke: #A80036; stroke-width: 2.0;"/><polygon fill="#A80036" points="189.859,166.605,191.3351,156.8674,188.536,161.7832,183.6202,158.9841,189.859,166.605" style="stroke: #A80036; stroke-width: 2.0;"/><!--MD5=[67764334e3d2915ebd84e117e906ab9d]
link geo-api to geoApp--><path d="M196,213.169 C196,233.935 196,265.04 196,287.405 " fill="none" id="geo-api-to-geoApp" style="stroke: #A80036; stroke-width: 2.0;"/><polygon fill="#A80036" points="196,292.605,200,283.605,196,287.605,192,283.605,196,292.605" style="stroke: #A80036; stroke-width: 2.0;"/><!--MD5=[0c6df0e4ee91e1b5b192f42edde7e377]
link geoApp to geoDb--><path d="M196,339.127 C196,362.307 196,398.747 196,423.6987 " fill="none" id="geoApp-to-geoDb" style="stroke: #A80036; stroke-width: 2.0;"/><polygon fill="#A80036" points="196,428.8398,200,419.8398,196,423.8398,192,419.8398,196,428.8398" style="stroke: #A80036; stroke-width: 2.0;"/><!--MD5=[3e2a1d459cc2fd3c146b408a39501688]
link gg to gg--><path d="M22.4418,54.795 C44.2139,32.877 77,35.945 77,64 C77,90.411 47.9434,94.678 26.3736,76.801 " fill="none" id="gg-to-gg" style="stroke: #A80036; stroke-width: 2.0;"/><polygon fill="#A80036" points="22.4418,73.205,26.3842,82.2304,26.1317,76.5792,31.7829,76.3266,22.4418,73.205" style="stroke: #A80036; stroke-width: 2.0;"/><!--MD5=[342ac857f7c6e6afbc73101d604df6ff]
@startuml
package "Frontends" {
  [geo-editor]
  [geo-api-docs]
}

node "Apis" {
  [geo-api]
}

node "Backend applications" {
  [geo-api-impl] as geoApp
}

database "Databases" {
    [Postgis(geo)] as geoDb
}

[geo-editor] ==> [geo-api]
[geo-api-docs] ==> [geo-api]
[geo-api] ==> geoApp
geoApp ==> geoDb
gg ==> gg
@enduml

PlantUML version 1.2020.20beta13(Unknown compile time)
(GPL source distribution)
Java Runtime: Java(TM) SE Runtime Environment
JVM: Java HotSpot(TM) 64-Bit Server VM
Default Encoding: UTF-8
Language: en
Country: US
--></g></svg>