<?xml version="1.0" encoding="UTF-8" standalone="no"?><svg xmlns="http://www.w3.org/2000/svg" xmlns:xlink="http://www.w3.org/1999/xlink" contentScriptType="application/ecmascript" contentStyleType="text/css" height="498px" preserveAspectRatio="none" style="width:352px;height:498px;" version="1.1" viewBox="0 0 352 498" width="352px" zoomAndPan="magnify"><defs><filter height="300%" id="f753833vh4gbe" width="300%" x="-1" y="-1"><feGaussianBlur result="blurOut" stdDeviation="2.0"/><feColorMatrix in="blurOut" result="blurOut2" type="matrix" values="0 0 0 0 0 0 0 0 0 0 0 0 0 0 0 0 0 0 .4 0"/><feOffset dx="4.0" dy="4.0" in="blurOut2" result="blurOut3"/><feBlend in="SourceGraphic" in2="blurOut3" mode="normal"/></filter></defs><g><!--MD5=[51902f9cf29cd601730683d3fabd5519]
cluster Frontends--><polygon fill="#FFFFFF" filter="url(#f753833vh4gbe)" points="16,6,104,6,111,28.2969,335,28.2969,335,103,16,103,16,6" style="stroke: #000000; stroke-width: 1.5;"/><line style="stroke: #000000; stroke-width: 1.5;" x1="16" x2="111" y1="28.2969" y2="28.2969"/><text fill="#000000" font-family="sans-serif" font-size="14" font-weight="bold" lengthAdjust="spacingAndGlyphs" textLength="82" x="20" y="20.9951">Frontends</text><!--MD5=[1bf9fafd4c3ffed81b5161497c92f4c1]
cluster Apis--><polygon fill="#FFFFFF" filter="url(#f753833vh4gbe)" points="69,137,79,127,197,127,197,219,187,229,69,229,69,137" style="stroke: #000000; stroke-width: 1.5;"/><line style="stroke: #000000; stroke-width: 1.5;" x1="187" x2="197" y1="137" y2="127"/><line style="stroke: #000000; stroke-width: 1.5;" x1="69" x2="187" y1="137" y2="137"/><line style="stroke: #000000; stroke-width: 1.5;" x1="187" x2="187" y1="137" y2="229"/><text fill="#000000" font-family="sans-serif" font-size="14" font-weight="bold" lengthAdjust="spacingAndGlyphs" textLength="35" x="111.5" y="152.9951">Apis</text><!--MD5=[1e10b604b7746d79a680f4b65ff44148]
cluster Backend applications--><polygon fill="#FFFFFF" filter="url(#f753833vh4gbe)" points="33,263,43,253,283,253,283,345,273,355,33,355,33,263" style="stroke: #000000; stroke-width: 1.5;"/><line style="stroke: #000000; stroke-width: 1.5;" x1="273" x2="283" y1="263" y2="253"/><line style="stroke: #000000; stroke-width: 1.5;" x1="33" x2="273" y1="263" y2="263"/><line style="stroke: #000000; stroke-width: 1.5;" x1="273" x2="273" y1="263" y2="355"/><text fill="#000000" font-family="sans-serif" font-size="14" font-weight="bold" lengthAdjust="spacingAndGlyphs" textLength="174" x="67" y="278.9951">Backend applications</text><!--MD5=[00c6b0b359edc20bf57ae3e5e841ab11]
cluster Databases--><path d="M52,389 C52,379 133,379 133,379 C133,379 214,379 214,389 L214,481 C214,491 133,491 133,491 C133,491 52,491 52,481 L52,389 " fill="#FFFFFF" filter="url(#f753833vh4gbe)" style="stroke: #000000; stroke-width: 1.5;"/><path d="M52,389 C52,399 133,399 133,399 C133,399 214,399 214,389 " fill="none" style="stroke: #000000; stroke-width: 1.5;"/><text fill="#000000" font-family="sans-serif" font-size="14" font-weight="bold" lengthAdjust="spacingAndGlyphs" textLength="86" x="90" y="413.9951">Databases</text><!--MD5=[50454a96b1beff30c0f98383e84387d8]
entity geo-editor--><rect fill="#FEFECE" filter="url(#f753833vh4gbe)" height="46.2969" style="stroke: #A80036; stroke-width: 1.5;" width="117" x="201.5" y="41"/><rect fill="#FEFECE" height="10" style="stroke: #A80036; stroke-width: 1.5;" width="15" x="298.5" y="46"/><rect fill="#FEFECE" height="2" style="stroke: #A80036; stroke-width: 1.5;" width="4" x="296.5" y="48"/><rect fill="#FEFECE" height="2" style="stroke: #A80036; stroke-width: 1.5;" width="4" x="296.5" y="52"/><text fill="#000000" font-family="sans-serif" font-size="14" lengthAdjust="spacingAndGlyphs" textLength="77" x="216.5" y="73.9951">geo-editor</text><!--MD5=[8b861a298592fcc50a6704933eb66306]
entity geo-api-docs--><rect fill="#FEFECE" filter="url(#f753833vh4gbe)" height="46.2969" style="stroke: #A80036; stroke-width: 1.5;" width="134" x="32" y="41"/><rect fill="#FEFECE" height="10" style="stroke: #A80036; stroke-width: 1.5;" width="15" x="146" y="46"/><rect fill="#FEFECE" height="2" style="stroke: #A80036; stroke-width: 1.5;" width="4" x="144" y="48"/><rect fill="#FEFECE" height="2" style="stroke: #A80036; stroke-width: 1.5;" width="4" x="144" y="52"/><text fill="#000000" font-family="sans-serif" font-size="14" lengthAdjust="spacingAndGlyphs" textLength="94" x="47" y="73.9951">geo-api-docs</text><!--MD5=[a5f66e175b2abf3ddd815ab7a8176f6b]
entity geo-api--><rect fill="#FEFECE" filter="url(#f753833vh4gbe)" height="46.2969" style="stroke: #A80036; stroke-width: 1.5;" width="95" x="85.5" y="167"/><rect fill="#FEFECE" height="10" style="stroke: #A80036; stroke-width: 1.5;" width="15" x="160.5" y="172"/><rect fill="#FEFECE" height="2" style="stroke: #A80036; stroke-width: 1.5;" width="4" x="158.5" y="174"/><rect fill="#FEFECE" height="2" style="stroke: #A80036; stroke-width: 1.5;" width="4" x="158.5" y="178"/><text fill="#000000" font-family="sans-serif" font-size="14" lengthAdjust="spacingAndGlyphs" textLength="55" x="100.5" y="199.9951">geo-api</text><!--MD5=[c0418ae9a84e2ea62ed89c567fdda1d3]
entity geoApp--><rect fill="#FEFECE" filter="url(#f753833vh4gbe)" height="46.2969" style="stroke: #A80036; stroke-width: 1.5;" width="133" x="66.5" y="293"/><rect fill="#FEFECE" height="10" style="stroke: #A80036; stroke-width: 1.5;" width="15" x="179.5" y="298"/><rect fill="#FEFECE" height="2" style="stroke: #A80036; stroke-width: 1.5;" width="4" x="177.5" y="300"/><rect fill="#FEFECE" height="2" style="stroke: #A80036; stroke-width: 1.5;" width="4" x="177.5" y="304"/><text fill="#000000" font-family="sans-serif" font-size="14" lengthAdjust="spacingAndGlyphs" textLength="93" x="81.5" y="325.9951">geo-api-impl</text><!--MD5=[2f77700ff471796b0e2941825987d8a3]
entity geoDb--><rect fill="#FEFECE" filter="url(#f753833vh4gbe)" height="46.2969" style="stroke: #A80036; stroke-width: 1.5;" width="129" x="68.5" y="429"/><rect fill="#FEFECE" height="10" style="stroke: #A80036; stroke-width: 1.5;" width="15" x="177.5" y="434"/><rect fill="#FEFECE" height="2" style="stroke: #A80036; stroke-width: 1.5;" width="4" x="175.5" y="436"/><rect fill="#FEFECE" height="2" style="stroke: #A80036; stroke-width: 1.5;" width="4" x="175.5" y="440"/><text fill="#000000" font-family="sans-serif" font-size="14" lengthAdjust="spacingAndGlyphs" textLength="89" x="83.5" y="461.9951">Postgis(geo)</text><!--MD5=[aa332f5a5281028618880898fdab453a]
link geo-editor to geo-api--><path d="M237.295,87.169 C215.488,108.461 182.549,140.621 159.541,163.086 " fill="none" id="geo-editor-to-geo-api" style="stroke: #A80036; stroke-width: 1.0;"/><polygon fill="#A80036" points="155.937,166.605,165.1709,163.1793,159.5144,163.1119,159.5819,157.4554,155.937,166.605" style="stroke: #A80036; stroke-width: 1.0;"/><!--MD5=[a4e49a8541c88d15cd8bc0b4bf2778d9]
link geo-api-docs to geo-api--><path d="M105.079,87.169 C110.797,108.023 119.373,139.302 125.511,161.687 " fill="none" id="geo-api-docs-to-geo-api" style="stroke: #A80036; stroke-width: 1.0;"/><polygon fill="#A80036" points="126.859,166.605,128.3351,156.8674,125.536,161.7832,120.6202,158.9841,126.859,166.605" style="stroke: #A80036; stroke-width: 1.0;"/><!--MD5=[67764334e3d2915ebd84e117e906ab9d]
link geo-api to geoApp--><path d="M133,213.169 C133,233.935 133,265.04 133,287.405 " fill="none" id="geo-api-to-geoApp" style="stroke: #A80036; stroke-width: 1.0;"/><polygon fill="#A80036" points="133,292.605,137,283.605,133,287.605,129,283.605,133,292.605" style="stroke: #A80036; stroke-width: 1.0;"/><!--MD5=[0c6df0e4ee91e1b5b192f42edde7e377]
link geoApp to geoDb--><path d="M133,339.127 C133,362.307 133,398.747 133,423.6987 " fill="none" id="geoApp-to-geoDb" style="stroke: #A80036; stroke-width: 1.0;"/><polygon fill="#A80036" points="133,428.8398,137,419.8398,133,423.8398,129,419.8398,133,428.8398" style="stroke: #A80036; stroke-width: 1.0;"/><!--MD5=[3aba472bc602c3ee03afb209c5b4cc00]
@startuml
package "Frontends" {
  [geo-editor]
  [geo-api-docs]
}

node "Apis" {
  [geo-api]
}

node "Backend applications" {
  [geo-api-impl] as geoApp
}


database "Databases" {
    [Postgis(geo)] as geoDb
}

[geo-editor] - -> [geo-api]
[geo-api-docs] - -> [geo-api]
[geo-api] - -> geoApp
geoApp - -> geoDb
@enduml

PlantUML version 1.2020.20beta13(Unknown compile time)
(GPL source distribution)
Java Runtime: Java(TM) SE Runtime Environment
JVM: Java HotSpot(TM) 64-Bit Server VM
Default Encoding: UTF-8
Language: en
Country: US
--></g></svg>